<?xml version="1.0" encoding="UTF-8"?>
<!DOCTYPE svg PUBLIC "-//W3C//DTD SVG 1.1//EN" "http://www.w3.org/Graphics/SVG/1.1/DTD/svg11.dtd">
<!-- Creator: CorelDRAW X8 -->
<svg xmlns="http://www.w3.org/2000/svg" xml:space="preserve" width="400mm" height="400mm" version="1.1" style="shape-rendering:geometricPrecision; text-rendering:geometricPrecision; image-rendering:optimizeQuality; fill-rule:evenodd; clip-rule:evenodd"
viewBox="0 0 40000 40000"
 xmlns:xlink="http://www.w3.org/1999/xlink">
 <defs>
  <style type="text/css">
   <![CDATA[
    .fil0 {fill:#020202}
    .fil1 {fill:#141414}
    .fil3 {fill:#D6D6D6}
    .fil2 {fill:#E8E8E8}
   ]]>
  </style>
 </defs>
 <g id="Capa_x0020_1">
  <metadata id="CorelCorpID_0Corel-Layer"/>
  <g id="_522050056">
   <path class="fil0" d="M22480 5719c-61,423 -125,830 -195,1267 -30,182 -94,403 -144,632 -48,222 -105,435 -154,623l-540 1790c-65,186 -185,394 -200,576l274 0 0 1005c-158,37 -454,91 -640,91 15,178 66,205 119,384 46,157 79,301 104,444 46,255 121,759 5,999 181,0 186,-14 320,-45 0,502 0,1005 0,1507 1,531 -45,943 -45,1508 -193,0 -185,-20 -320,45 -321,-479 -500,-1176 -636,-1831 -104,-500 -323,-1633 -323,-2143 895,-474 -29,-1261 -453,-818 -167,175 -176,611 51,731 53,28 115,56 173,87 -63,270 -67,668 -117,979 -99,622 -419,2183 -842,2493 0,-359 -37,-2359 38,-2612 72,-245 180,-438 236,-677 -139,-3 -167,-21 -274,-46l0 -731 274 0c-17,-202 -154,-386 -223,-554 -78,-193 -136,-358 -215,-561 -442,-1146 -694,-2547 -795,-3773 -10,-121 11,25 -10,-81l-36 -147 -183 0c-31,75 -30,343 -49,544 -103,1077 -458,2822 -701,3913 -49,221 -118,418 -118,659l457 0 0 731 -274 0c39,467 278,257 274,1188 -2,485 -8,979 -2,1463 4,269 50,376 48,683l-46 2148c-6,-10 -13,-38 -15,-31l-380 -1358c-9,-187 33,-110 138,-285 153,-254 25,-509 -174,-594 -172,-74 -177,-30 -345,-16 -9,7 -23,6 -26,19 -9,33 -36,27 -51,41 -113,101 -162,165 -155,349 8,208 109,322 277,367l-139 957c-41,315 -118,590 -192,904 -76,321 -360,1430 -491,1702l274 0 0 1782 -731 0c-60,-257 -90,-2237 -30,-2692 16,-121 -9,-69 213,-186 0,-638 46,-1106 46,-1736 139,-3 166,-21 274,-46 -46,-172 -148,-249 -247,-392 -460,-665 -451,-739 -625,-1020l-571 -1119c-74,-177 -111,-278 -174,-466 -32,-97 -52,-151 -79,-243 -68,-238 -24,-196 -86,-231 -155,-22 -99,-14 -182,-92l-1 -1462 -45 777c0,191 38,491 -31,655 -17,42 -11,19 -33,58 -2,3 -46,75 -52,85 -650,1275 -901,1723 -1711,2857l-366 548 273 52c1,631 47,1099 47,1729 107,25 135,43 274,46l1 2467c7,812 -183,434 -263,644 -1,5 -4,19 -5,24 -70,190 -927,1201 -1118,1418l-41 50c-95,117 -136,148 -173,285l274 0c0,240 35,249 46,456l46 1462c-230,0 -237,5 -411,46 0,-597 91,-1030 91,-1599l-822 -55c-44,-155 -51,-87 -134,-222l-262 -469c-158,-339 -494,-1055 -564,-1355 633,-53 549,-1079 -134,-1053 -137,5 -280,61 -362,145 -60,61 -158,244 -163,366 -9,207 106,373 238,506l147 127c-15,183 -157,460 -274,594 -33,124 -208,418 -282,540 -102,168 -213,414 -357,511 -48,204 -91,146 -137,319l-822 0c0,558 274,2080 274,2513l411 0 -322 6530c-8,652 -6,1104 -83,1790 -23,203 6,429 -7,634 -36,573 -46,157 46,501 154,41 261,137 366,229 488,40 475,180 1325,183 464,1 1007,-78 1307,-247 186,-104 255,-233 441,-334 348,-190 916,-184 1304,-144l862 203c126,47 115,84 208,190 197,225 199,176 526,251 657,150 1379,-87 1979,-281 190,-62 1850,-141 2188,-141l-199 -165c-119,-67 -198,-133 -297,-207 -209,-156 -334,-300 -520,-484 -750,-741 -1253,-2200 -1051,-3271 41,-219 23,-181 53,-354 50,-286 170,-500 233,-772 -877,0 -1586,-190 -2030,-848 -1468,-2175 1156,-4831 3428,-3930 368,146 714,423 897,768l223 395c139,377 180,880 86,1285 475,-10 934,-261 1919,-92 222,38 404,122 593,138 0,-271 -67,-354 -45,-636 33,-411 157,-739 350,-1070 895,-1533 3428,-1096 4244,263 402,670 711,1452 425,2260 -135,379 -244,630 -535,881l-74 63c-7,6 -18,15 -25,21 -19,16 -71,62 -98,84 -104,85 -100,82 -221,145 -215,111 -245,131 -528,203 -239,61 -906,62 -960,91 -116,64 4,140 42,231l66 259c303,1325 140,2606 -716,3652 -66,82 -98,105 -170,196 -221,283 -663,718 -1024,803l259 73c132,13 235,19 379,19 545,-1 1094,-25 1642,48 234,31 348,209 570,298 776,311 2206,216 2909,-339 5,-4 16,-12 21,-16 217,-192 505,-422 1034,-182l151 118c55,48 32,27 60,43 272,164 455,329 791,435 600,191 1545,262 2235,98 849,-201 742,-305 584,-1775 -53,-497 -81,-1023 -136,-1554l-406 -4664c-63,-831 -297,-1079 122,-1298 678,-355 510,-294 729,-1784 19,-125 25,-247 44,-367 24,-152 56,-264 66,-391 -415,0 -643,-45 -1050,-45l-731 -1736 -320 -731c121,-32 38,4 137,-46 139,-206 316,-358 122,-668 -160,-254 -409,-245 -624,-199 -85,73 -155,144 -229,228 -35,429 -56,486 320,685 -91,172 -156,391 -235,587 -81,203 -170,389 -251,618l-473 1170 -162 67c-191,50 -455,25 -661,25 0,-184 -83,-943 132,-1032 1,0 261,-19 325,-19 -23,-276 -123,-200 -182,-457l-412 -730 -208 -385c-67,-112 -174,-284 -203,-392l-182 -320c-103,-118 -118,-217 -192,-356 -327,-611 -261,-420 -1361,-420 -63,-271 -18,-437 -56,-727 -55,-431 -48,-271 375,-370 -39,-146 -161,-276 -244,-440 -420,-822 -725,-2475 -873,-3376 -22,-136 -21,-195 -29,-342l-8 -222c0,-6 5,-21 5,-26 1,-4 3,-17 7,-24l92 -46c819,-777 -643,-1303 -717,-497 -22,246 135,446 351,497 -117,502 -162,1563 -365,2421 -132,560 -272,1392 -513,1908 -44,95 -77,119 -81,284 147,-70 249,-45 457,-45l0 868 -731 0 -16 -803c-80,-733 -30,-5485 -30,-6323 108,-52 167,-40 274,-92 43,-109 -24,-28 -45,-270 -9,-104 -7,-353 1,-459l133 -599c51,-118 10,-33 48,-88 28,-120 42,-134 92,-228 -925,0 -731,225 -731,-1142l228 46 137 0c-70,-67 -76,-47 -91,-183l-842 -3361c-51,-260 -78,-474 -137,-731l-209 -1481 -142 646c-63,199 6,64 -86,176z"/>
   <path class="fil1" d="M20424 2796c-141,-52 -4,-91 -134,-52 -107,33 43,278 163,525l288 449c695,430 1334,-20 1830,-283 0,375 13,771 2,1144 -12,390 -93,681 -93,1140 92,-112 23,23 86,-176l142 -646c-93,-305 -47,-1573 -45,-2056 1,-291 -41,-470 -46,-685 -6,10 -12,16 -14,32 -23,160 -225,256 -370,315 -568,232 -854,391 -1492,388 -232,-1 -225,37 -317,-95z"/>
   <path class="fil1" d="M17409 5765l-186 87c-95,33 -105,32 -215,60 -359,90 -1216,317 -1517,173 49,182 177,260 351,334 198,84 308,141 534,197 824,204 688,76 1308,62 43,78 25,56 45,183l183 0 -91 -1507c0,133 95,293 -412,411z"/>
   <path class="fil1" d="M13846 12342l1 1462c83,78 27,70 182,92 -6,-11 -16,-41 -19,-33l-72 -2662c-132,11 -68,8 -145,37 -457,174 -1341,876 -2048,876 422,576 1967,103 2101,92l0 136z"/>
   <path class="fil2" d="M31661 36827c47,47 166,-66 53,-25 -1,1 -129,-52 -53,25z"/>
   <path class="fil2" d="M27185 20611c0,113 73,11 28,0 0,-1 -28,-130 -28,0z"/>
   <path class="fil2" d="M24764 14444c0,113 73,12 28,0 0,0 -28,-130 -28,0z"/>
   <path class="fil2" d="M25723 14444c0,113 73,12 28,0 0,0 -28,-130 -28,0z"/>
   <path class="fil2" d="M30930 22255c0,114 74,12 29,0 -1,0 -29,-129 -29,0z"/>
   <path class="fil2" d="M26363 19195c0,113 73,11 28,0 -1,-1 -28,-130 -28,0z"/>
   <path class="fil2" d="M24398 11977c0,114 73,12 29,0 -1,0 -29,-129 -29,0z"/>
   <polygon class="fil2" points="28372,22621 28418,22621 28380,22567 "/>
   <polygon class="fil2" points="20424,12480 20424,12434 20371,12472 "/>
   <polygon class="fil3" points="7406,36553 7360,36553 7398,36606 "/>
   <polygon class="fil2" points="28784,23351 28829,23351 28791,23298 "/>
   <polygon class="fil2" points="24809,15038 24809,14992 24756,15030 "/>
   <polygon class="fil2" points="23896,10470 23942,10470 23904,10417 "/>
   <polygon class="fil2" points="27961,21844 28007,21844 27969,21791 "/>
   <polygon class="fil2" points="29971,21707 29971,21661 29918,21699 "/>
   <polygon class="fil3" points="30702,21387 30702,21433 30755,21395 "/>
   <polygon class="fil2" points="26591,19743 26591,19788 26644,19750 "/>
   <polygon class="fil2" points="23850,10653 23805,10653 23843,10706 "/>
   <polygon class="fil2" points="25403,15221 25403,15266 25457,15228 "/>
   <polygon class="fil2" points="30702,21387 30702,21342 30649,21380 "/>
   <polygon class="fil2" points="30885,21616 30885,21661 30938,21623 "/>
   <polygon class="fil2" points="30702,22346 30702,22392 30755,22354 "/>
   <polygon class="fil2" points="17409,5765 17409,5719 17356,5757 "/>
   <polygon class="fil2" points="24809,15038 24809,15083 24863,15045 "/>
   <polygon class="fil3" points="8319,22986 8319,22940 8266,22978 "/>
   <polygon class="fil2" points="30885,23123 30930,23123 30892,23070 "/>
   <polygon class="fil2" points="7680,24037 7680,23991 7626,24029 "/>
   <polygon class="fil2" points="27779,21524 27824,21524 27786,21471 "/>
   <polygon class="fil3" points="7040,36324 6995,36324 7033,36378 "/>
   <polygon class="fil2" points="29332,24767 29332,24722 29278,24760 "/>
   <polygon class="fil2" points="16542,15906 16542,15860 16488,15898 "/>
   <polygon class="fil2" points="20424,2796 20470,2796 20432,2742 "/>
   <polygon class="fil2" points="30108,21387 30108,21342 30055,21380 "/>
   <polygon class="fil2" points="30108,21433 30063,21433 30101,21486 "/>
   <polygon class="fil2" points="24261,11977 24261,12023 24315,11985 "/>
   <polygon class="fil2" points="30885,21616 30885,21570 30832,21608 "/>
   <polygon class="fil2" points="20424,12480 20424,12525 20478,12487 "/>
   <polygon class="fil3" points="24124,13393 24124,13439 24178,13401 "/>
   <polygon class="fil2" points="30154,21433 30108,21387 30108,21433 "/>
   <path class="fil2" d="M27093 36507c5,5 14,-20 14,-14l0 0c-1,1 -18,9 -14,14z"/>
   <path class="fil2" d="M8319 22803c5,5 14,-20 14,-13l0 0c-1,1 -18,9 -14,13z"/>
   <path class="fil2" d="M32301 36644c4,5 13,-20 13,-14l1 0c-1,1 -19,10 -14,14z"/>
   <path class="fil2" d="M24307 19103c5,5 14,-20 14,-13l0 0c-1,1 -19,9 -14,13z"/>
   <path class="fil2" d="M9370 21570c4,4 14,-20 14,-14l0 0c-1,1 -19,9 -14,14z"/>
   <path class="fil2" d="M7771 23717c5,4 14,-20 14,-14l0 0c-1,1 -18,9 -14,14z"/>
   <path class="fil2" d="M9004 22392c5,5 14,-20 14,-13l0 0c-1,0 -18,9 -14,13z"/>
   <path class="fil2" d="M25312 30203c4,5 14,-20 14,-13l0 0c-1,1 -19,9 -14,13z"/>
   <path class="fil3" d="M8182 22072c5,5 14,-20 14,-13l0 0c-1,1 -18,9 -14,13z"/>
   <path class="fil2" d="M24627 17870c4,4 13,-20 13,-14l0 0c0,1 -18,9 -13,14z"/>
   <path class="fil2" d="M10009 36644l14 -14c-1,1 -18,10 -14,14z"/>
   <path class="fil2" d="M15582 6404l14 -13c-1,1 -18,9 -14,13z"/>
   <path class="fil2" d="M23713 9648l14 -14c-1,1 -18,9 -14,14z"/>
   <path class="fil2" d="M14760 15495l14 -14c-1,1 -18,9 -14,14z"/>
   <path class="fil2" d="M16953 15906l13 -14c-1,1 -18,9 -13,14z"/>
   <path class="fil2" d="M26682 19560l14 -14c-1,1 -18,9 -14,14z"/>
   <path class="fil2" d="M30839 22803l14 -13c-1,1 -18,9 -14,13z"/>
   <path class="fil2" d="M31570 24676l14 -14c-1,1 -19,10 -14,14z"/>
   <path class="fil2" d="M25495 15312l13 -14c-1,1 -18,9 -13,14z"/>
   <path class="fil2" d="M27276 20656l14 -13c-1,1 -18,9 -14,13z"/>
   <path class="fil2" d="M15628 16865l14 -14c-1,1 -19,9 -14,14z"/>
   <path class="fil2" d="M29058 23763l13 -14c-1,1 -18,9 -13,14z"/>
   <path class="fil2" d="M23759 11703l13 -13c0,0 -18,9 -13,13z"/>
   <path class="fil2" d="M19282 11977l14 -13c-1,1 -18,9 -14,13z"/>
   <path class="fil2" d="M25814 14535l14 -13c-1,1 -18,9 -14,13z"/>
   <path class="fil2" d="M25677 15083l14 -13c-1,1 -18,9 -14,13z"/>
   <path class="fil2" d="M19145 15495l14 -14c-1,1 -18,9 -14,14z"/>
   <path class="fil2" d="M20653 15495l13 -14c-1,1 -18,9 -13,14z"/>
   <path class="fil2" d="M27413 20793l14 -13c-1,1 -18,9 -14,13z"/>
   <path class="fil2" d="M27687 21204l14 -13c-1,1 -18,9 -14,13z"/>
   <path class="fil2" d="M23211 34223l13 -14c-1,1 -18,10 -13,14z"/>
   <path class="fil2" d="M26682 19743l14 -14c-1,1 -18,9 -14,14z"/>
   <path class="fil2" d="M14212 27051l14 -13c-1,1 -19,9 -14,13z"/>
   <path class="fil2" d="M28601 36416l13 -14c0,1 -18,9 -13,14z"/>
   <path class="fil3" d="M15445 6313l14 -14c-1,1 -18,10 -14,14z"/>
   <path class="fil2" d="M23713 11612l14 -14c-1,1 -18,9 -14,14z"/>
   <path class="fil2" d="M30565 21433l14 -14c-1,1 -18,9 -14,14z"/>
   <path class="fil2" d="M26637 19651l13 -13c-1,1 -18,9 -13,13z"/>
   <path class="fil2" d="M30337 21342l13 -14c-1,1 -18,9 -13,14z"/>
   <path class="fil2" d="M24901 15358l13 -14c0,1 -18,9 -13,14z"/>
   <path class="fil2" d="M28966 23625l14 -13c-1,1 -18,9 -14,13z"/>
   <path class="fil2" d="M13892 11155l14 -14c-1,1 -18,10 -14,14z"/>
   <path class="fil2" d="M16998 35776l14 -13c-1,0 -18,9 -14,13z"/>
   <path class="fil2" d="M30793 22346l14 -13c-1,1 -18,9 -14,13z"/>
   <path class="fil2" d="M26454 19377l14 -13c-1,1 -19,9 -14,13z"/>
   <path class="fil3" d="M19693 11658l14 -14c-1,1 -18,9 -14,14z"/>
   <path class="fil2" d="M25129 14216l14 -14c-1,1 -18,9 -14,14z"/>
   <path class="fil3" d="M15674 6085l13 -14c-1,1 -18,9 -13,14z"/>
   <path class="fil3" d="M11608 22621l14 -14c-1,1 -18,9 -14,14z"/>
   <path class="fil2" d="M28692 22895l14 -14c-1,1 -18,9 -14,14z"/>
   <path class="fil2" d="M20561 3664l14 -14c-1,1 -18,9 -14,14z"/>
   <path class="fil2" d="M19465 12480l14 -14c-1,1 -19,9 -14,14z"/>
   <path class="fil3" d="M17638 6861l13 -13c0,0 -18,9 -13,13z"/>
   <path class="fil2" d="M14532 26777l13 -13c-1,1 -18,9 -13,13z"/>
   <path class="fil2" d="M29377 24493l14 -13c-1,1 -18,9 -14,13z"/>
   <path class="fil2" d="M11882 16774l14 -14c-1,1 -18,9 -14,14z"/>
   <path class="fil2" d="M23256 7820l14 -13c-1,1 -18,9 -14,13z"/>
   <path class="fil2" d="M20561 3755l14 -14c-1,1 -18,9 -14,14z"/>
   <path class="fil2" d="M30748 21524l13 -13c0,1 -18,9 -13,13z"/>
   <polygon class="fil2" points="30200,21479 30154,21433 "/>
   <polygon class="fil2" points="26591,19743 26502,19690 "/>
   <polygon class="fil2" points="25495,15175 25584,15227 "/>
  </g>
 </g>
</svg>
